<svg width="478" height="417" viewBox="0 0 478 417" fill="none" xmlns="http://www.w3.org/2000/svg">
<path fill-rule="evenodd" clip-rule="evenodd" d="M176.271 1.86168C175.785 2.10432 184.434 15.2286 180.47 19.3607C179.8 20.0298 179.8 31.8159 180.47 32.485C184.242 36.4333 186.496 39.7787 188.382 41.7859L193.679 47.44C195.204 49.0796 198.364 48.8958 201.347 49.9325C206.644 51.8147 192.942 56.8586 192.942 67.4315C192.942 71.2622 158.967 72.4165 147.033 84.9305C119.57 113.672 119.452 89.3053 109.463 89.3053C109.279 89.3053 114.458 99.7606 109.463 102.371C43.465 136.95 65.1377 140.045 59.3549 146.126C57.2848 148.25 -38.4893 183.381 17.5858 202.946C48.3343 213.644 49.6088 162.11 113.603 229.136C132.845 249.252 145.626 214.548 180.456 251.009C182.651 253.318 183.623 275.199 184.596 277.199C197.988 305.271 160.543 321.925 180.456 342.769C186.238 348.849 164.507 361.79 178.629 364.224C180.212 364.525 185.384 362.944 184.596 364.65C183.807 366.348 177.597 364.834 174.614 365.26C141.854 369.517 152.632 395.222 184.596 395.222C198.416 395.222 196.161 428.588 226.365 412.721C235.684 407.861 269.165 422.75 276.473 399.597C281.158 385.009 289.563 402.876 314.043 351.526C330.301 317.557 389.175 290.515 418.399 310.932C428.447 317.917 440.381 259.766 465.767 274.346C469.907 276.714 469.966 210.056 533.047 242.988C547.721 250.642 547.11 271.913 570.617 247.363C584.252 233.084 597.041 256.355 610.559 242.26C620.85 231.503 649.16 253.075 631.443 216.004C618.78 189.505 646.118 185.616 639.782 172.308C635.76 163.919 672.417 179.418 660.667 154.809C653.786 140.405 640.084 152.015 623.097 146.118C574.02 128.979 559.898 197.343 539.559 154.809C529.326 133.42 531.463 189.814 481.112 189.814C478.312 189.814 475.513 189.814 472.772 189.814C462.967 189.814 459.925 199.777 439.342 185.44C434.775 182.278 390.207 176.021 414.259 159.184C428.749 149.096 405.854 112.208 385.035 106.738C373.042 103.577 381.013 86.2613 376.696 89.2979C345.521 111.054 372.129 67.6006 347.473 80.5484C340.408 84.1953 347.841 68.7623 351.672 67.4242C364.888 62.8068 364.151 45.6092 330.787 80.5484C310.271 102.003 323.664 78.3574 327.074 71.1887C335.111 54.2337 338.279 28.9557 326.588 41.1683C324.761 43.1094 338.338 49.9178 326.588 49.9178C325.248 49.9178 314.043 76.2325 314.043 54.2926C314.043 36.1833 305.704 77.8721 305.704 63.042C305.704 56.785 292.488 63.8288 305.704 49.9178C308.628 46.8812 289.018 15.3389 289.018 36.7935C289.018 13.8831 272.215 37.0362 276.473 28.1028C276.775 27.4338 240.973 13.5154 268.134 32.4776C289.445 47.3076 246.152 50.5281 263.935 41.1683C282.933 31.2644 217.539 5.73646 230.571 19.3533C235.323 24.3384 238.91 16.5594 238.91 28.1028C238.91 29.1396 224.42 26.6471 219.55 24.7575C218.512 24.3898 217.967 25.2427 218.026 23.7207C218.026 23.0517 218.512 22.5076 218.696 21.8973C220.766 13.8169 213.827 2.33224 209.259 2.14843C207.558 2.08961 206.151 3.54541 205.664 7.25108C205.539 8.22162 206.762 10.8391 205.48 10.5965C204.324 10.3538 205.178 8.58925 204.626 7.67753C200.751 1.25143 184.551 -2.45425 176.271 1.86168Z" fill="black" fill-opacity="0.02"/>
<path d="M257.667 241H236.5V159.408L211.231 167.245V150.033L255.396 134.213H257.667V241ZM356.661 196.908C356.661 211.654 353.609 222.934 347.506 230.746C341.402 238.559 332.467 242.465 320.699 242.465C309.078 242.465 300.191 238.632 294.039 230.966C287.887 223.3 284.737 212.313 284.591 198.007V178.378C284.591 163.485 287.667 152.182 293.819 144.467C300.021 136.752 308.932 132.895 320.553 132.895C332.174 132.895 341.061 136.728 347.213 144.394C353.365 152.011 356.515 162.973 356.661 177.279V196.908ZM335.494 175.375C335.494 166.537 334.273 160.116 331.832 156.112C329.439 152.06 325.68 150.033 320.553 150.033C315.572 150.033 311.886 151.962 309.493 155.819C307.149 159.628 305.904 165.609 305.758 173.764V199.691C305.758 208.383 306.93 214.853 309.273 219.101C311.666 223.3 315.475 225.399 320.699 225.399C325.875 225.399 329.61 223.373 331.905 219.32C334.2 215.268 335.396 209.066 335.494 200.717V175.375ZM435.294 196.908C435.294 211.654 432.242 222.934 426.139 230.746C420.035 238.559 411.1 242.465 399.332 242.465C387.711 242.465 378.824 238.632 372.672 230.966C366.52 223.3 363.37 212.313 363.224 198.007V178.378C363.224 163.485 366.3 152.182 372.452 144.467C378.653 136.752 387.564 132.895 399.186 132.895C410.807 132.895 419.693 136.728 425.846 144.394C431.998 152.011 435.147 162.973 435.294 177.279V196.908ZM414.127 175.375C414.127 166.537 412.906 160.116 410.465 156.112C408.072 152.06 404.312 150.033 399.186 150.033C394.205 150.033 390.519 151.962 388.126 155.819C385.782 159.628 384.537 165.609 384.391 173.764V199.691C384.391 208.383 385.562 214.853 387.906 219.101C390.299 223.3 394.107 225.399 399.332 225.399C404.508 225.399 408.243 223.373 410.538 219.32C412.833 215.268 414.029 209.066 414.127 200.717V175.375Z" fill="black" fill-opacity="0.05"/>
<path d="M48.9355 85.5879C48.9355 84.9199 48.7129 84.4043 48.2676 84.041C47.834 83.666 47.2129 83.4785 46.4043 83.4785C45.5723 83.4785 44.8926 83.6543 44.3652 84.0059C43.8496 84.3457 43.5918 84.832 43.5918 85.4648H38.5117C38.5117 83.7422 39.2266 82.3418 40.6562 81.2637C42.0859 80.1855 43.9141 79.6465 46.1406 79.6465C48.5898 79.6465 50.5117 80.127 51.9062 81.0879C53.3125 82.0488 54.0156 83.4141 54.0156 85.1836C54.0156 86.0273 53.7578 86.8066 53.2422 87.5215C52.7383 88.2246 52.0234 88.7871 51.0977 89.209C53.2656 89.9707 54.3496 91.4414 54.3496 93.6211C54.3496 95.3672 53.5996 96.7617 52.0996 97.8047C50.6113 98.8359 48.625 99.3516 46.1406 99.3516C43.832 99.3516 41.9336 98.8125 40.4453 97.7344C38.957 96.6562 38.2129 95.2031 38.2129 93.375H43.293C43.293 94.0195 43.5801 94.541 44.1543 94.9395C44.7285 95.3379 45.4785 95.5371 46.4043 95.5371C47.3066 95.5371 48.0098 95.3262 48.5137 94.9043C49.0176 94.4824 49.2695 93.9316 49.2695 93.252C49.2695 92.4199 49.0293 91.8281 48.5488 91.4766C48.0684 91.1133 47.3477 90.9316 46.3867 90.9316H43.627V87.627H46.5625C48.1445 87.5801 48.9355 86.9004 48.9355 85.5879ZM68.4648 99C68.2305 98.543 68.0605 97.9746 67.9551 97.2949C66.7246 98.666 65.125 99.3516 63.1562 99.3516C61.293 99.3516 59.7461 98.8125 58.5156 97.7344C57.2969 96.6562 56.6875 95.2969 56.6875 93.6562C56.6875 91.6406 57.4316 90.0938 58.9199 89.0156C60.4199 87.9375 62.582 87.3926 65.4062 87.3809H67.7441V86.291C67.7441 85.4121 67.5156 84.709 67.0586 84.1816C66.6133 83.6543 65.9043 83.3906 64.9316 83.3906C64.0762 83.3906 63.4023 83.5957 62.9102 84.0059C62.4297 84.416 62.1895 84.9785 62.1895 85.6934H57.1094C57.1094 84.5918 57.4492 83.5723 58.1289 82.6348C58.8086 81.6973 59.7695 80.9648 61.0117 80.4375C62.2539 79.8984 63.6484 79.6289 65.1953 79.6289C67.5391 79.6289 69.3965 80.2207 70.7676 81.4043C72.1504 82.5762 72.8418 84.2285 72.8418 86.3613V94.6055C72.8535 96.4102 73.1055 97.7754 73.5977 98.7012V99H68.4648ZM64.2637 95.4668C65.0137 95.4668 65.7051 95.3027 66.3379 94.9746C66.9707 94.6348 67.4395 94.1836 67.7441 93.6211V90.3516H65.8457C63.3027 90.3516 61.9492 91.2305 61.7852 92.9883L61.7676 93.2871C61.7676 93.9199 61.9902 94.4414 62.4355 94.8516C62.8809 95.2617 63.4902 95.4668 64.2637 95.4668ZM97.8379 99H92.7578V79.418L86.6934 81.2988V77.168L97.293 73.3711H97.8379V99ZM123.396 88.418C123.396 91.957 122.664 94.6641 121.199 96.5391C119.734 98.4141 117.59 99.3516 114.766 99.3516C111.977 99.3516 109.844 98.4316 108.367 96.5918C106.891 94.752 106.135 92.1152 106.1 88.6816V83.9707C106.1 80.3965 106.838 77.6836 108.314 75.832C109.803 73.9805 111.941 73.0547 114.73 73.0547C117.52 73.0547 119.652 73.9746 121.129 75.8145C122.605 77.6426 123.361 80.2734 123.396 83.707V88.418ZM118.316 83.25C118.316 81.1289 118.023 79.5879 117.438 78.627C116.863 77.6543 115.961 77.168 114.73 77.168C113.535 77.168 112.65 77.6309 112.076 78.5566C111.514 79.4707 111.215 80.9062 111.18 82.8633V89.0859C111.18 91.1719 111.461 92.7246 112.023 93.7441C112.598 94.752 113.512 95.2559 114.766 95.2559C116.008 95.2559 116.904 94.7695 117.455 93.7969C118.006 92.8242 118.293 91.3359 118.316 89.332V83.25ZM152.559 79.9805V99H147.479V84.0938H142.996L142.68 89.9648C142.48 93.0938 141.865 95.373 140.834 96.8027C139.803 98.2324 138.268 98.9648 136.229 99H134.506L134.453 94.8691L135.086 94.8164C136 94.7461 136.668 94.207 137.09 93.1992C137.512 92.1914 137.775 90.4746 137.881 88.0488L138.232 79.9805H152.559ZM165.232 99.3516C162.443 99.3516 160.17 98.4961 158.412 96.7852C156.666 95.0742 155.793 92.7949 155.793 89.9473V89.4551C155.793 87.5449 156.162 85.8398 156.9 84.3398C157.639 82.8281 158.682 81.668 160.029 80.8594C161.389 80.0391 162.936 79.6289 164.67 79.6289C167.271 79.6289 169.316 80.4492 170.805 82.0898C172.305 83.7305 173.055 86.0566 173.055 89.0684V91.1426H160.943C161.107 92.3848 161.6 93.3809 162.42 94.1309C163.252 94.8809 164.301 95.2559 165.566 95.2559C167.523 95.2559 169.053 94.5469 170.154 93.1289L172.65 95.9238C171.889 97.002 170.857 97.8457 169.557 98.4551C168.256 99.0527 166.814 99.3516 165.232 99.3516ZM164.652 83.7422C163.645 83.7422 162.824 84.082 162.191 84.7617C161.57 85.4414 161.172 86.4141 160.996 87.6797H168.062V87.2754C168.039 86.1504 167.734 85.2832 167.148 84.6738C166.562 84.0527 165.73 83.7422 164.652 83.7422ZM191.529 84.0586H185.43V99H180.332V84.0586H174.338V79.9805H191.529V84.0586ZM220.182 89.666C220.182 92.5957 219.514 94.9453 218.178 96.7148C216.854 98.4727 215.061 99.3516 212.799 99.3516C210.877 99.3516 209.324 98.6836 208.141 97.3477V106.312H203.061V79.9805H207.771L207.947 81.8438C209.178 80.3672 210.783 79.6289 212.764 79.6289C215.107 79.6289 216.93 80.4961 218.23 82.2305C219.531 83.9648 220.182 86.3555 220.182 89.4023V89.666ZM215.102 89.2969C215.102 87.5273 214.785 86.1621 214.152 85.2012C213.531 84.2402 212.623 83.7598 211.428 83.7598C209.834 83.7598 208.738 84.3691 208.141 85.5879V93.375C208.762 94.6289 209.869 95.2559 211.463 95.2559C213.889 95.2559 215.102 93.2695 215.102 89.2969ZM234.367 99C234.133 98.543 233.963 97.9746 233.857 97.2949C232.627 98.666 231.027 99.3516 229.059 99.3516C227.195 99.3516 225.648 98.8125 224.418 97.7344C223.199 96.6562 222.59 95.2969 222.59 93.6562C222.59 91.6406 223.334 90.0938 224.822 89.0156C226.322 87.9375 228.484 87.3926 231.309 87.3809H233.646V86.291C233.646 85.4121 233.418 84.709 232.961 84.1816C232.516 83.6543 231.807 83.3906 230.834 83.3906C229.979 83.3906 229.305 83.5957 228.812 84.0059C228.332 84.416 228.092 84.9785 228.092 85.6934H223.012C223.012 84.5918 223.352 83.5723 224.031 82.6348C224.711 81.6973 225.672 80.9648 226.914 80.4375C228.156 79.8984 229.551 79.6289 231.098 79.6289C233.441 79.6289 235.299 80.2207 236.67 81.4043C238.053 82.5762 238.744 84.2285 238.744 86.3613V94.6055C238.756 96.4102 239.008 97.7754 239.5 98.7012V99H234.367ZM230.166 95.4668C230.916 95.4668 231.607 95.3027 232.24 94.9746C232.873 94.6348 233.342 94.1836 233.646 93.6211V90.3516H231.748C229.205 90.3516 227.852 91.2305 227.688 92.9883L227.67 93.2871C227.67 93.9199 227.893 94.4414 228.338 94.8516C228.783 95.2617 229.393 95.4668 230.166 95.4668ZM252.086 81.0352C254.523 81.0352 256.469 81.8438 257.922 83.4609C259.375 85.0781 260.102 87.2754 260.102 90.0527V90.2988C260.102 93.041 259.293 95.2383 257.676 96.8906C256.059 98.543 253.885 99.3691 251.154 99.3691C248.412 99.3691 246.227 98.4785 244.598 96.6973C242.98 94.9043 242.172 92.4727 242.172 89.4023V88.5586C242.195 84.2812 242.916 80.9355 244.334 78.5215C245.764 76.0957 247.908 74.5664 250.768 73.9336C252.268 73.6055 253.234 73.2832 253.668 72.9668C254.102 72.6387 254.318 72.1875 254.318 71.6133H258.432C258.432 73.4531 257.934 74.8359 256.938 75.7617C255.953 76.6875 254.195 77.4023 251.664 77.9062C250.164 78.2109 248.98 78.8027 248.113 79.6816C247.246 80.5605 246.66 81.7969 246.355 83.3906C247.973 81.8203 249.883 81.0352 252.086 81.0352ZM251.119 85.1484C249.912 85.1484 248.963 85.5527 248.271 86.3613C247.592 87.1699 247.252 88.4824 247.252 90.2988C247.252 91.916 247.586 93.1523 248.254 94.0078C248.922 94.8516 249.889 95.2734 251.154 95.2734C252.385 95.2734 253.334 94.8574 254.002 94.0254C254.67 93.1934 255.01 91.9688 255.021 90.3516V89.9297C255.021 88.3711 254.676 87.1875 253.984 86.3789C253.305 85.5586 252.35 85.1484 251.119 85.1484ZM262.352 89.3145C262.352 87.4277 262.715 85.7461 263.441 84.2695C264.168 82.793 265.211 81.6504 266.57 80.8418C267.941 80.0332 269.529 79.6289 271.334 79.6289C273.9 79.6289 275.992 80.4141 277.609 81.9844C279.238 83.5547 280.146 85.6875 280.334 88.3828L280.369 89.6836C280.369 92.6016 279.555 94.9453 277.926 96.7148C276.297 98.4727 274.111 99.3516 271.369 99.3516C268.627 99.3516 266.436 98.4727 264.795 96.7148C263.166 94.957 262.352 92.5664 262.352 89.543V89.3145ZM267.432 89.6836C267.432 91.4883 267.771 92.8711 268.451 93.832C269.131 94.7812 270.104 95.2559 271.369 95.2559C272.6 95.2559 273.561 94.7871 274.252 93.8496C274.943 92.9004 275.289 91.3887 275.289 89.3145C275.289 87.5449 274.943 86.1738 274.252 85.2012C273.561 84.2285 272.588 83.7422 271.334 83.7422C270.092 83.7422 269.131 84.2285 268.451 85.2012C267.771 86.1621 267.432 87.6562 267.432 89.6836ZM298.756 84.0586H292.656V99H287.559V84.0586H281.564V79.9805H298.756V84.0586ZM306.754 85.5527H310.393C312.033 85.5527 313.475 85.8281 314.717 86.3789C315.959 86.9297 316.908 87.7207 317.564 88.752C318.232 89.7715 318.566 90.9609 318.566 92.3203C318.566 94.3242 317.822 95.9414 316.334 97.1719C314.857 98.3906 312.842 99 310.287 99H301.656V79.9805H306.754V85.5527ZM326.652 99H321.572V79.9805H326.652V99ZM306.754 89.6309V94.9395H310.357C311.365 94.9395 312.139 94.7051 312.678 94.2363C313.217 93.7676 313.486 93.1289 313.486 92.3203C313.486 91.5 313.223 90.8496 312.695 90.3691C312.168 89.877 311.389 89.6309 310.357 89.6309H306.754ZM349.539 81.0352C351.977 81.0352 353.922 81.8438 355.375 83.4609C356.828 85.0781 357.555 87.2754 357.555 90.0527V90.2988C357.555 93.041 356.746 95.2383 355.129 96.8906C353.512 98.543 351.338 99.3691 348.607 99.3691C345.865 99.3691 343.68 98.4785 342.051 96.6973C340.434 94.9043 339.625 92.4727 339.625 89.4023V88.5586C339.648 84.2812 340.369 80.9355 341.787 78.5215C343.217 76.0957 345.361 74.5664 348.221 73.9336C349.721 73.6055 350.688 73.2832 351.121 72.9668C351.555 72.6387 351.771 72.1875 351.771 71.6133H355.885C355.885 73.4531 355.387 74.8359 354.391 75.7617C353.406 76.6875 351.648 77.4023 349.117 77.9062C347.617 78.2109 346.434 78.8027 345.566 79.6816C344.699 80.5605 344.113 81.7969 343.809 83.3906C345.426 81.8203 347.336 81.0352 349.539 81.0352ZM348.572 85.1484C347.365 85.1484 346.416 85.5527 345.725 86.3613C345.045 87.1699 344.705 88.4824 344.705 90.2988C344.705 91.916 345.039 93.1523 345.707 94.0078C346.375 94.8516 347.342 95.2734 348.607 95.2734C349.838 95.2734 350.787 94.8574 351.455 94.0254C352.123 93.1934 352.463 91.9688 352.475 90.3516V89.9297C352.475 88.3711 352.129 87.1875 351.438 86.3789C350.758 85.5586 349.803 85.1484 348.572 85.1484ZM359.805 89.3145C359.805 87.4277 360.168 85.7461 360.895 84.2695C361.621 82.793 362.664 81.6504 364.023 80.8418C365.395 80.0332 366.982 79.6289 368.787 79.6289C371.354 79.6289 373.445 80.4141 375.062 81.9844C376.691 83.5547 377.6 85.6875 377.787 88.3828L377.822 89.6836C377.822 92.6016 377.008 94.9453 375.379 96.7148C373.75 98.4727 371.564 99.3516 368.822 99.3516C366.08 99.3516 363.889 98.4727 362.248 96.7148C360.619 94.957 359.805 92.5664 359.805 89.543V89.3145ZM364.885 89.6836C364.885 91.4883 365.225 92.8711 365.904 93.832C366.584 94.7812 367.557 95.2559 368.822 95.2559C370.053 95.2559 371.014 94.7871 371.705 93.8496C372.396 92.9004 372.742 91.3887 372.742 89.3145C372.742 87.5449 372.396 86.1738 371.705 85.2012C371.014 84.2285 370.041 83.7422 368.787 83.7422C367.545 83.7422 366.584 84.2285 365.904 85.2012C365.225 86.1621 364.885 87.6562 364.885 89.6836ZM397.211 79.9805V99H392.131V84.0938H387.648L387.332 89.9648C387.133 93.0938 386.518 95.373 385.486 96.8027C384.455 98.2324 382.92 98.9648 380.881 99H379.158L379.105 94.8691L379.738 94.8164C380.652 94.7461 381.32 94.207 381.742 93.1992C382.164 92.1914 382.428 90.4746 382.533 88.0488L382.885 79.9805H397.211ZM409.885 99.3516C407.096 99.3516 404.822 98.4961 403.064 96.7852C401.318 95.0742 400.445 92.7949 400.445 89.9473V89.4551C400.445 87.5449 400.814 85.8398 401.553 84.3398C402.291 82.8281 403.334 81.668 404.682 80.8594C406.041 80.0391 407.588 79.6289 409.322 79.6289C411.924 79.6289 413.969 80.4492 415.457 82.0898C416.957 83.7305 417.707 86.0566 417.707 89.0684V91.1426H405.596C405.76 92.3848 406.252 93.3809 407.072 94.1309C407.904 94.8809 408.953 95.2559 410.219 95.2559C412.176 95.2559 413.705 94.5469 414.807 93.1289L417.303 95.9238C416.541 97.002 415.51 97.8457 414.209 98.4551C412.908 99.0527 411.467 99.3516 409.885 99.3516ZM409.305 83.7422C408.297 83.7422 407.477 84.082 406.844 84.7617C406.223 85.4414 405.824 86.4141 405.648 87.6797H412.715V87.2754C412.691 86.1504 412.387 85.2832 411.801 84.6738C411.215 84.0527 410.383 83.7422 409.305 83.7422ZM429.361 99.3516C426.572 99.3516 424.299 98.4961 422.541 96.7852C420.795 95.0742 419.922 92.7949 419.922 89.9473V89.4551C419.922 87.5449 420.291 85.8398 421.029 84.3398C421.768 82.8281 422.811 81.668 424.158 80.8594C425.518 80.0391 427.064 79.6289 428.799 79.6289C431.4 79.6289 433.445 80.4492 434.934 82.0898C436.434 83.7305 437.184 86.0566 437.184 89.0684V91.1426H425.072C425.236 92.3848 425.729 93.3809 426.549 94.1309C427.381 94.8809 428.43 95.2559 429.695 95.2559C431.652 95.2559 433.182 94.5469 434.283 93.1289L436.779 95.9238C436.018 97.002 434.986 97.8457 433.686 98.4551C432.385 99.0527 430.943 99.3516 429.361 99.3516ZM428.781 83.7422C427.773 83.7422 426.953 84.082 426.32 84.7617C425.699 85.4414 425.301 86.4141 425.125 87.6797H432.191V87.2754C432.168 86.1504 431.863 85.2832 431.277 84.6738C430.691 84.0527 429.859 83.7422 428.781 83.7422Z" fill="black" fill-opacity="0.1"/>
<path d="M238.609 307.543C238.609 306.277 238.855 305.152 239.348 304.168C239.84 303.176 240.547 302.414 241.469 301.883C242.391 301.352 243.473 301.086 244.715 301.086C246.613 301.086 248.109 301.676 249.203 302.855C250.297 304.027 250.844 305.625 250.844 307.648V307.789C250.844 309.766 250.293 311.336 249.191 312.5C248.098 313.656 246.613 314.234 244.738 314.234C242.934 314.234 241.484 313.695 240.391 312.617C239.297 311.531 238.707 310.062 238.621 308.211L238.609 307.543ZM242.559 307.789C242.559 308.961 242.742 309.82 243.109 310.367C243.477 310.914 244.02 311.188 244.738 311.188C246.145 311.188 246.863 310.105 246.895 307.941V307.543C246.895 305.27 246.168 304.133 244.715 304.133C243.395 304.133 242.68 305.113 242.57 307.074L242.559 307.789ZM259.246 302.023C260.902 302.023 262.215 302.566 263.184 303.652C264.16 304.738 264.648 306.219 264.648 308.094V308.258C264.648 309.445 264.402 310.496 263.91 311.41C263.418 312.316 262.707 313.016 261.777 313.508C260.855 314 259.773 314.246 258.531 314.246C256.656 314.246 255.16 313.645 254.043 312.441C252.934 311.238 252.379 309.582 252.379 307.473V307.098C252.395 304.207 252.871 301.934 253.809 300.277C254.746 298.621 256.18 297.578 258.109 297.148C258.977 296.953 259.543 296.766 259.809 296.586C260.082 296.398 260.219 296.109 260.219 295.719H263.395C263.395 296.695 263.242 297.438 262.938 297.945C262.641 298.453 262.164 298.875 261.508 299.211C260.859 299.539 259.945 299.812 258.766 300.031C257.836 300.203 257.117 300.57 256.609 301.133C256.109 301.688 255.77 302.465 255.59 303.465C256.645 302.504 257.863 302.023 259.246 302.023ZM258.508 305.07C257.062 305.07 256.34 306.07 256.34 308.07V308.258C256.34 310.219 257.07 311.199 258.531 311.199C259.945 311.199 260.668 310.262 260.699 308.387V308.012C260.699 306.051 259.969 305.07 258.508 305.07ZM273.297 304.801H275.324C276.504 304.801 277.535 304.992 278.418 305.375C279.309 305.758 279.988 306.301 280.457 307.004C280.926 307.707 281.16 308.523 281.16 309.453C281.16 310.82 280.629 311.922 279.566 312.758C278.512 313.586 277.078 314 275.266 314H269.336V304.379H265.762V301.32H273.297V304.801ZM273.297 307.836V310.977H275.312C275.922 310.977 276.391 310.84 276.719 310.566C277.055 310.285 277.223 309.906 277.223 309.43C277.223 308.961 277.07 308.578 276.766 308.281C276.469 307.984 275.984 307.836 275.312 307.836H273.297ZM288.836 314.234C286.891 314.234 285.316 313.656 284.113 312.5C282.91 311.336 282.309 309.824 282.309 307.965V307.637C282.309 306.34 282.547 305.195 283.023 304.203C283.508 303.211 284.211 302.445 285.133 301.906C286.055 301.359 287.148 301.086 288.414 301.086C290.195 301.086 291.602 301.641 292.633 302.75C293.664 303.852 294.18 305.391 294.18 307.367V308.902H286.328C286.469 309.613 286.777 310.172 287.254 310.578C287.73 310.984 288.348 311.188 289.105 311.188C290.355 311.188 291.332 310.75 292.035 309.875L293.84 312.008C293.348 312.688 292.648 313.23 291.742 313.637C290.844 314.035 289.875 314.234 288.836 314.234ZM288.391 304.133C287.234 304.133 286.547 304.898 286.328 306.43H290.312V306.125C290.328 305.492 290.168 305.004 289.832 304.66C289.496 304.309 289.016 304.133 288.391 304.133ZM301.188 309.57H300.004V314H296.043V301.32H300.004V305.879H301.141L303.156 301.32H308.219L304.516 307.18H304.527L308.594 314H303.238L301.188 309.57ZM320.641 304.344H316.645V314H312.672V304.344H308.734V301.32H320.641V304.344ZM321.273 307.543C321.273 306.277 321.52 305.152 322.012 304.168C322.504 303.176 323.211 302.414 324.133 301.883C325.055 301.352 326.137 301.086 327.379 301.086C329.277 301.086 330.773 301.676 331.867 302.855C332.961 304.027 333.508 305.625 333.508 307.648V307.789C333.508 309.766 332.957 311.336 331.855 312.5C330.762 313.656 329.277 314.234 327.402 314.234C325.598 314.234 324.148 313.695 323.055 312.617C321.961 311.531 321.371 310.062 321.285 308.211L321.273 307.543ZM325.223 307.789C325.223 308.961 325.406 309.82 325.773 310.367C326.141 310.914 326.684 311.188 327.402 311.188C328.809 311.188 329.527 310.105 329.559 307.941V307.543C329.559 305.27 328.832 304.133 327.379 304.133C326.059 304.133 325.344 305.113 325.234 307.074L325.223 307.789ZM335.512 314V301.32H340.949C342.691 301.32 344.023 301.625 344.945 302.234C345.875 302.844 346.34 303.723 346.34 304.871C346.34 305.457 346.137 305.984 345.73 306.453C345.324 306.914 344.73 307.27 343.949 307.52C344.957 307.691 345.734 308.027 346.281 308.527C346.828 309.02 347.102 309.637 347.102 310.379C347.102 311.574 346.648 312.477 345.742 313.086C344.844 313.688 343.547 313.992 341.852 314H335.512ZM339.473 308.832V310.977H341.781C342.273 310.977 342.625 310.891 342.836 310.719C343.047 310.547 343.152 310.285 343.152 309.934C343.152 309.23 342.746 308.863 341.934 308.832H339.473ZM339.473 306.395H341.102C341.578 306.395 341.91 306.316 342.098 306.16C342.293 305.996 342.391 305.758 342.391 305.445C342.391 305.039 342.273 304.754 342.039 304.59C341.805 304.426 341.441 304.344 340.949 304.344H339.473V306.395ZM366.039 314H362.066V304.367H358.574V314H354.625V301.32H366.039V314ZM367.656 307.543C367.656 306.277 367.902 305.152 368.395 304.168C368.887 303.176 369.594 302.414 370.516 301.883C371.438 301.352 372.52 301.086 373.762 301.086C375.66 301.086 377.156 301.676 378.25 302.855C379.344 304.027 379.891 305.625 379.891 307.648V307.789C379.891 309.766 379.34 311.336 378.238 312.5C377.145 313.656 375.66 314.234 373.785 314.234C371.98 314.234 370.531 313.695 369.438 312.617C368.344 311.531 367.754 310.062 367.668 308.211L367.656 307.543ZM371.605 307.789C371.605 308.961 371.789 309.82 372.156 310.367C372.523 310.914 373.066 311.188 373.785 311.188C375.191 311.188 375.91 310.105 375.941 307.941V307.543C375.941 305.27 375.215 304.133 373.762 304.133C372.441 304.133 371.727 305.113 371.617 307.074L371.605 307.789ZM387.871 314V301.32H393.309C395.051 301.32 396.383 301.625 397.305 302.234C398.234 302.844 398.699 303.723 398.699 304.871C398.699 305.457 398.496 305.984 398.09 306.453C397.684 306.914 397.09 307.27 396.309 307.52C397.316 307.691 398.094 308.027 398.641 308.527C399.188 309.02 399.461 309.637 399.461 310.379C399.461 311.574 399.008 312.477 398.102 313.086C397.203 313.688 395.906 313.992 394.211 314H387.871ZM391.832 308.832V310.977H394.141C394.633 310.977 394.984 310.891 395.195 310.719C395.406 310.547 395.512 310.285 395.512 309.934C395.512 309.23 395.105 308.863 394.293 308.832H391.832ZM391.832 306.395H393.461C393.938 306.395 394.27 306.316 394.457 306.16C394.652 305.996 394.75 305.758 394.75 305.445C394.75 305.039 394.633 304.754 394.398 304.59C394.164 304.426 393.801 304.344 393.309 304.344H391.832V306.395ZM406.445 311.188C407 311.188 407.43 311.039 407.734 310.742C408.039 310.438 408.188 310.016 408.18 309.477H411.883C411.883 310.867 411.383 312.008 410.383 312.898C409.391 313.789 408.109 314.234 406.539 314.234C404.695 314.234 403.242 313.656 402.18 312.5C401.117 311.344 400.586 309.742 400.586 307.695V307.531C400.586 306.25 400.82 305.121 401.289 304.145C401.766 303.16 402.449 302.406 403.34 301.883C404.23 301.352 405.285 301.086 406.504 301.086C408.152 301.086 409.461 301.543 410.43 302.457C411.398 303.371 411.883 304.609 411.883 306.172H408.18C408.18 305.516 408.02 305.012 407.699 304.66C407.379 304.309 406.949 304.133 406.41 304.133C405.387 304.133 404.789 304.785 404.617 306.09C404.562 306.504 404.535 307.074 404.535 307.801C404.535 309.074 404.688 309.957 404.992 310.449C405.297 310.941 405.781 311.188 406.445 311.188ZM419.688 314.234C417.742 314.234 416.168 313.656 414.965 312.5C413.762 311.336 413.16 309.824 413.16 307.965V307.637C413.16 306.34 413.398 305.195 413.875 304.203C414.359 303.211 415.062 302.445 415.984 301.906C416.906 301.359 418 301.086 419.266 301.086C421.047 301.086 422.453 301.641 423.484 302.75C424.516 303.852 425.031 305.391 425.031 307.367V308.902H417.18C417.32 309.613 417.629 310.172 418.105 310.578C418.582 310.984 419.199 311.188 419.957 311.188C421.207 311.188 422.184 310.75 422.887 309.875L424.691 312.008C424.199 312.688 423.5 313.23 422.594 313.637C421.695 314.035 420.727 314.234 419.688 314.234ZM419.242 304.133C418.086 304.133 417.398 304.898 417.18 306.43H421.164V306.125C421.18 305.492 421.02 305.004 420.684 304.66C420.348 304.309 419.867 304.133 419.242 304.133ZM434.008 301.32H437.969V314H434.008V306.617L430.527 314H426.555V301.32H430.527V308.68L434.008 301.32ZM436.691 295.977C436.691 297.047 436.297 297.914 435.508 298.578C434.719 299.242 433.668 299.574 432.355 299.574C431.043 299.574 429.992 299.242 429.203 298.578C428.414 297.914 428.02 297.047 428.02 295.977H430.703C430.703 296.445 430.848 296.812 431.137 297.078C431.434 297.336 431.84 297.465 432.355 297.465C432.871 297.465 433.27 297.34 433.551 297.09C433.84 296.832 433.984 296.461 433.984 295.977H436.691ZM243.402 336.211V342H239.289V324.938H246.098C247.402 324.938 248.555 325.18 249.555 325.664C250.562 326.141 251.34 326.824 251.887 327.715C252.441 328.598 252.719 329.602 252.719 330.727C252.719 332.391 252.121 333.723 250.926 334.723C249.738 335.715 248.105 336.211 246.027 336.211H243.402ZM243.402 333.035H246.098C246.895 333.035 247.5 332.836 247.914 332.438C248.336 332.039 248.547 331.477 248.547 330.75C248.547 329.953 248.332 329.316 247.902 328.84C247.473 328.363 246.887 328.121 246.145 328.113H243.402V333.035ZM260.711 342.234C258.766 342.234 257.191 341.656 255.988 340.5C254.785 339.336 254.184 337.824 254.184 335.965V335.637C254.184 334.34 254.422 333.195 254.898 332.203C255.383 331.211 256.086 330.445 257.008 329.906C257.93 329.359 259.023 329.086 260.289 329.086C262.07 329.086 263.477 329.641 264.508 330.75C265.539 331.852 266.055 333.391 266.055 335.367V336.902H258.203C258.344 337.613 258.652 338.172 259.129 338.578C259.605 338.984 260.223 339.188 260.98 339.188C262.23 339.188 263.207 338.75 263.91 337.875L265.715 340.008C265.223 340.688 264.523 341.23 263.617 341.637C262.719 342.035 261.75 342.234 260.711 342.234ZM260.266 332.133C259.109 332.133 258.422 332.898 258.203 334.43H262.188V334.125C262.203 333.492 262.043 333.004 261.707 332.66C261.371 332.309 260.891 332.133 260.266 332.133ZM273.016 339.188C273.57 339.188 274 339.039 274.305 338.742C274.609 338.438 274.758 338.016 274.75 337.477H278.453C278.453 338.867 277.953 340.008 276.953 340.898C275.961 341.789 274.68 342.234 273.109 342.234C271.266 342.234 269.812 341.656 268.75 340.5C267.688 339.344 267.156 337.742 267.156 335.695V335.531C267.156 334.25 267.391 333.121 267.859 332.145C268.336 331.16 269.02 330.406 269.91 329.883C270.801 329.352 271.855 329.086 273.074 329.086C274.723 329.086 276.031 329.543 277 330.457C277.969 331.371 278.453 332.609 278.453 334.172H274.75C274.75 333.516 274.59 333.012 274.27 332.66C273.949 332.309 273.52 332.133 272.98 332.133C271.957 332.133 271.359 332.785 271.188 334.09C271.133 334.504 271.105 335.074 271.105 335.801C271.105 337.074 271.258 337.957 271.562 338.449C271.867 338.941 272.352 339.188 273.016 339.188ZM291.461 342H287.488V332.367H283.996V342H280.047V329.32H291.461V342ZM298.645 336.469L300.754 329.32H304.984L299.816 344.121L299.594 344.66C298.859 346.301 297.562 347.121 295.703 347.121C295.188 347.121 294.645 347.043 294.074 346.887V344.062H294.59C295.145 344.062 295.566 343.98 295.855 343.816C296.152 343.66 296.371 343.375 296.512 342.961L296.828 342.117L292.422 329.32H296.641L298.645 336.469ZM312.684 330.023C314.34 330.023 315.652 330.566 316.621 331.652C317.598 332.738 318.086 334.219 318.086 336.094V336.258C318.086 337.445 317.84 338.496 317.348 339.41C316.855 340.316 316.145 341.016 315.215 341.508C314.293 342 313.211 342.246 311.969 342.246C310.094 342.246 308.598 341.645 307.48 340.441C306.371 339.238 305.816 337.582 305.816 335.473V335.098C305.832 332.207 306.309 329.934 307.246 328.277C308.184 326.621 309.617 325.578 311.547 325.148C312.414 324.953 312.98 324.766 313.246 324.586C313.52 324.398 313.656 324.109 313.656 323.719H316.832C316.832 324.695 316.68 325.438 316.375 325.945C316.078 326.453 315.602 326.875 314.945 327.211C314.297 327.539 313.383 327.812 312.203 328.031C311.273 328.203 310.555 328.57 310.047 329.133C309.547 329.688 309.207 330.465 309.027 331.465C310.082 330.504 311.301 330.023 312.684 330.023ZM311.945 333.07C310.5 333.07 309.777 334.07 309.777 336.07V336.258C309.777 338.219 310.508 339.199 311.969 339.199C313.383 339.199 314.105 338.262 314.137 336.387V336.012C314.137 334.051 313.406 333.07 311.945 333.07ZM331.223 329.32V342H327.273V332.367H324.906L324.695 336.246C324.547 338.168 324.113 339.605 323.395 340.559C322.676 341.512 321.609 341.992 320.195 342H318.953L318.906 338.977L319.316 338.93C319.84 338.867 320.227 338.52 320.477 337.887C320.734 337.246 320.898 336.281 320.969 334.992L321.215 329.32H331.223ZM340.75 329.32H344.711V342H340.75V334.617L337.27 342H333.297V329.32H337.27V336.68L340.75 329.32ZM352.234 337.57H351.051V342H347.09V329.32H351.051V333.879H352.188L354.203 329.32H359.266L355.562 335.18H355.574L359.641 342H354.285L352.234 337.57ZM366.531 342.234C364.586 342.234 363.012 341.656 361.809 340.5C360.605 339.336 360.004 337.824 360.004 335.965V335.637C360.004 334.34 360.242 333.195 360.719 332.203C361.203 331.211 361.906 330.445 362.828 329.906C363.75 329.359 364.844 329.086 366.109 329.086C367.891 329.086 369.297 329.641 370.328 330.75C371.359 331.852 371.875 333.391 371.875 335.367V336.902H364.023C364.164 337.613 364.473 338.172 364.949 338.578C365.426 338.984 366.043 339.188 366.801 339.188C368.051 339.188 369.027 338.75 369.73 337.875L371.535 340.008C371.043 340.688 370.344 341.23 369.438 341.637C368.539 342.035 367.57 342.234 366.531 342.234ZM366.086 332.133C364.93 332.133 364.242 332.898 364.023 334.43H368.008V334.125C368.023 333.492 367.863 333.004 367.527 332.66C367.191 332.309 366.711 332.133 366.086 332.133ZM385.668 335.25H383.723V342H379.609V324.938H383.723V331.535H385.305L388.586 324.938H393.566L388.879 332.812L394.152 342H389.289L385.668 335.25ZM406.762 335.754C406.762 337.723 406.316 339.297 405.426 340.477C404.543 341.648 403.348 342.234 401.84 342.234C400.676 342.234 399.719 341.809 398.969 340.957V346.875H395.02V329.32H398.711L398.828 330.492C399.586 329.555 400.582 329.086 401.816 329.086C403.379 329.086 404.594 329.664 405.461 330.82C406.328 331.969 406.762 333.551 406.762 335.566V335.754ZM402.812 335.508C402.812 333.258 402.156 332.133 400.844 332.133C399.906 332.133 399.281 332.469 398.969 333.141V338.133C399.312 338.836 399.945 339.188 400.867 339.188C402.125 339.188 402.773 338.102 402.812 335.93V335.508ZM412.75 332.801H414.777C415.949 332.801 416.98 332.992 417.871 333.375C418.762 333.758 419.441 334.301 419.91 335.004C420.379 335.707 420.613 336.523 420.613 337.453C420.613 338.82 420.082 339.922 419.02 340.758C417.965 341.586 416.523 342 414.695 342H408.777V329.32H412.75V332.801ZM426.461 342H422.488V329.32H426.461V342ZM412.75 335.836V338.977H414.754C415.355 338.977 415.824 338.84 416.16 338.566C416.504 338.285 416.676 337.906 416.676 337.43C416.676 336.961 416.523 336.578 416.219 336.281C415.914 335.984 415.426 335.836 414.754 335.836H412.75ZM436.914 337.641L439.785 329.32H444.754V342H440.793V334.969L438.238 342H435.613L433.199 335.344V342H429.238V329.32H434.09L436.914 337.641Z" fill="black" fill-opacity="0.1"/>
</svg>
