<svg width="75" height="15" viewBox="0 0 75 15" fill="none" xmlns="http://www.w3.org/2000/svg">
<path fill-rule="evenodd" clip-rule="evenodd" d="M49.3512 8.04759C49.3956 8.33864 49.4178 8.56253 49.4843 8.78641C49.9725 10.8686 51.5925 12.2566 53.7006 12.4358C55.5646 12.5925 57.0292 11.876 58.1165 10.3312C58.6491 9.5924 59.5145 9.45807 60.2024 10.0626C60.6019 10.3984 60.6463 10.8462 60.3356 11.2715C60.1581 11.4954 60.0027 11.7193 59.8252 11.9656C59.1151 12.9507 58.1831 13.6224 57.0292 14.0253C55.1652 14.6746 53.3011 14.7642 51.4593 14.0701C48.9739 13.1522 47.5094 11.3163 47.0877 8.69686C46.8436 7.08488 46.999 5.4729 47.7313 4.01764C48.7964 1.9355 50.4607 0.65935 52.7686 0.278743C54.2997 0.0324687 55.8087 0.189189 57.2289 0.883236C59.2482 1.84595 60.4687 3.48031 60.9347 5.65201C61.0679 6.2565 61.1123 6.86099 61.1567 7.46548C61.201 7.84609 61.0235 8.00281 60.6463 8.0252C60.4687 8.0252 60.3134 8.0252 60.1359 8.0252C56.6963 8.0252 53.2568 8.0252 49.8394 8.0252C49.684 8.04759 49.5731 8.04759 49.3512 8.04759ZM58.7379 5.76395C58.4494 3.81614 56.1194 2.11461 53.9669 2.24894C51.7256 2.38327 49.5065 4.10719 49.4178 5.76395C52.5023 5.76395 55.6312 5.76395 58.7379 5.76395Z" fill="white" fill-opacity="0.3"/>
<path fill-rule="evenodd" clip-rule="evenodd" d="M31.7322 7.98105C31.7543 8.18255 31.7765 8.31689 31.7987 8.47361C32.2203 10.7797 34.0844 12.3693 36.3922 12.414C38.1452 12.4364 39.4989 11.72 40.5196 10.2871C41.0522 9.52588 42.0064 9.43633 42.6721 10.108C42.9828 10.4438 43.0494 10.8468 42.7387 11.2498C42.6055 11.4513 42.4724 11.6304 42.3171 11.7872C41.5626 12.9066 40.5196 13.623 39.2548 14.0484C37.3908 14.6753 35.5267 14.7201 33.7293 14.0036C31.1552 12.9962 29.7128 11.0035 29.4021 8.22733C29.2468 6.884 29.38 5.58545 29.9347 4.35406C31.0221 2.02563 32.7751 0.592743 35.327 0.256911C36.6807 0.0778002 38.0343 0.189744 39.277 0.704687C41.5404 1.64502 42.8496 3.41373 43.36 5.80934C43.4488 6.34667 43.5154 6.92878 43.5375 7.46611C43.5597 7.91389 43.471 8.00344 43.005 8.00344C42.2061 8.00344 41.3629 8.00344 40.5418 8.00344C37.7902 8.00344 35.0386 8.00344 32.3313 8.00344C32.1316 7.98105 31.9541 7.98105 31.7322 7.98105ZM41.1632 5.69739C40.8747 3.77196 38.6112 2.13757 36.3922 2.18235C34.2397 2.22713 31.9984 3.97346 31.8209 5.69739C34.9276 5.69739 38.0121 5.69739 41.1632 5.69739Z" fill="white" fill-opacity="0.3"/>
<path fill-rule="evenodd" clip-rule="evenodd" d="M70.3438 9.01025C70.5213 9.16697 70.6101 9.25653 70.721 9.34608C71.9193 10.376 73.1176 11.4059 74.2937 12.4358C74.3603 12.5029 74.4712 12.5925 74.5378 12.6597C74.9816 13.1075 75.026 13.7567 74.6044 14.2045C74.205 14.6523 73.5836 14.7195 73.1176 14.3389C72.2744 13.6448 71.4755 12.9283 70.6545 12.2343C69.4784 11.2268 68.3244 10.2193 67.1483 9.21175C67.0596 9.12219 66.9264 9.03264 66.7489 8.8983C66.7489 9.14458 66.7267 9.30131 66.7267 9.45803C66.7267 12.3014 66.7267 10.1745 66.7267 13.0179C66.7267 13.1522 66.7267 13.2866 66.7267 13.4209C66.6823 14.0478 66.2163 14.4956 65.595 14.4508C64.9958 14.4284 64.5964 13.9806 64.5742 13.3537C64.5742 13.2194 64.5742 13.0851 64.5742 12.9507C64.5742 7.33107 64.5742 6.68178 64.5742 1.06212C64.5742 0.883011 64.5742 0.726288 64.5742 0.547175C64.5742 0.144171 64.6186 0.0770042 64.9958 0.0770042C65.5062 0.0546151 66.0166 0.0546151 66.527 0.0546151C67.7475 0.0546151 69.0123 0.0993933 70.2328 0.032226C72.2966 -0.0573303 74.6044 1.62185 74.8263 4.06226C75.026 6.25639 73.5392 8.33858 71.3202 8.78636C71.0317 8.85353 70.721 8.94308 70.3438 9.01025ZM66.5936 7.28629C66.7267 7.30868 66.8155 7.30868 66.882 7.30868C67.9028 7.30868 68.9458 7.30868 69.9665 7.30868C70.255 7.30868 70.5657 7.28629 70.8542 7.17434C71.8084 6.88329 72.5629 6.30117 72.807 5.27127C73.2286 3.50253 71.9193 1.89052 70.1219 1.89052C69.0567 1.89052 68.0138 1.89052 66.9264 1.89052C66.7933 1.89052 66.6823 1.91291 66.5492 1.91291C66.5936 3.70404 66.5936 5.47277 66.5936 7.28629Z" fill="white" fill-opacity="0.3"/>
<path fill-rule="evenodd" clip-rule="evenodd" d="M23.7425 8.00276C21.7009 8.00276 19.726 8.00276 17.7066 8.00276C17.7066 8.18186 17.6844 8.33858 17.6844 8.4953C17.6844 10.0625 17.6844 11.6072 17.6844 13.1744C17.6844 13.3759 17.6844 13.5774 17.6401 13.7341C17.4847 14.2043 16.9965 14.4953 16.5305 14.4729C16.0201 14.4281 15.5985 14.0252 15.532 13.5102C15.5098 13.3759 15.532 13.264 15.532 13.1296C15.532 7.555 15.5098 6.88336 15.5098 1.33111C15.5098 1.10723 15.532 0.883349 15.5985 0.681856C15.7761 0.211706 16.2642 -0.0569511 16.7746 0.0102132C17.2406 0.0773774 17.6401 0.480363 17.6844 0.972901C17.7066 1.12962 17.6844 1.26395 17.6844 1.42066C17.6844 4.28634 17.7066 2.24902 17.7066 5.1147C17.7066 5.2938 17.7288 5.45052 17.7288 5.60723C18.1061 5.69679 23.343 5.69679 23.7425 5.60723C23.7425 5.47291 23.7647 5.33858 23.7647 5.18186C23.7647 3.92813 23.7647 2.65201 23.7647 1.39827C23.7647 1.26395 23.7647 1.15201 23.7647 1.01768C23.809 0.457975 24.2307 0.0326013 24.7854 0.0102132C25.3402 -0.0121749 25.8506 0.413199 25.9171 0.972901C25.9393 1.10723 25.9171 1.21917 25.9171 1.3535C25.9171 5.27141 25.9171 9.16694 25.9171 13.0849C25.9171 13.2192 25.9171 13.3311 25.9171 13.4655C25.8506 14.0252 25.3624 14.4729 24.8076 14.4505C24.2528 14.4281 23.809 13.9804 23.7425 13.4207C23.7425 13.2863 23.7425 13.1744 23.7425 13.0401C23.7425 11.5401 23.7425 9.9953 23.7425 8.4953C23.7425 8.36097 23.7425 8.20425 23.7425 8.00276Z" fill="white" fill-opacity="0.3"/>
<path fill-rule="evenodd" clip-rule="evenodd" d="M6.07954 14.563C4.63715 14.5406 3.28352 14.2272 2.04084 13.4659C1.50826 13.1525 1.02007 12.7495 0.620639 12.2793C0.420923 12.033 0.176826 11.7867 0.088063 11.4733C-0.0450809 11.0703 -0.0672716 10.6225 0.309969 10.2643C0.731592 9.86129 1.30855 9.70457 1.88551 10.0852C2.44027 10.4882 2.70656 11.0031 3.17256 11.4733C3.83828 12.145 4.70372 12.5032 5.63573 12.6151C6.50116 12.7047 7.34441 12.6823 8.18765 12.3913C8.52051 12.2569 8.87556 12.1002 9.16404 11.8763C9.69662 11.2718 9.85195 10.421 9.20842 9.8389C8.89775 9.57023 8.49832 9.36873 8.09889 9.18962C7.1225 8.76423 6.10173 8.47317 5.08096 8.2045C4.23771 8.003 3.43885 7.73433 2.59561 7.48805C2.28494 7.39849 1.97427 7.21938 1.68579 7.06266C0.909117 6.63727 0.465304 5.9656 0.33216 5.11481C0.088063 3.34608 0.731592 1.75646 2.26275 0.972839C4.65934 -0.21378 7.14469 -0.101835 9.54128 1.2639C9.98509 1.51018 10.4067 1.89079 10.784 2.22663C11.0724 2.4729 11.2943 2.83113 11.4053 3.21174C11.5162 3.68191 11.2943 4.17447 10.7174 4.30881C10.2292 4.42075 9.78538 4.26403 9.43033 3.88342C9.36376 3.81625 9.29718 3.72669 9.2528 3.65952C8.69804 2.80874 7.87698 2.33857 6.90059 2.15946C5.9242 1.98035 4.94782 2.00274 4.01581 2.38335C3.68295 2.51768 3.3279 2.6968 3.06161 2.94307C2.66218 3.48041 2.50684 4.19686 3.03942 4.86853C3.46104 5.27154 3.94924 5.49543 4.48181 5.60737C5.65792 5.89843 6.85621 6.21188 8.03232 6.50293C8.7868 6.70443 9.51909 6.95071 10.207 7.35372C11.0946 7.82389 11.7382 8.51795 11.9601 9.52545C12.2263 10.7569 11.9601 11.9211 11.0059 12.8166C9.91852 13.8018 8.67585 14.3391 7.23345 14.4958C6.83402 14.5406 6.43459 14.5406 6.07954 14.563Z" fill="white" fill-opacity="0.3"/>
</svg>
